<?xml version="1.0" encoding="utf-8"?>
<!-- Generator: Adobe Illustrator 16.0.0, SVG Export Plug-In . SVG Version: 6.00 Build 0)  -->
<!DOCTYPE svg PUBLIC "-//W3C//DTD SVG 1.1//EN" "http://www.w3.org/Graphics/SVG/1.1/DTD/svg11.dtd">
<svg version="1.1" id="Layer_1" xmlns="http://www.w3.org/2000/svg" xmlns:xlink="http://www.w3.org/1999/xlink" x="0px" y="0px"
	 width="100px" height="100px" viewBox="0 0 100 100" enable-background="new 0 0 100 100" xml:space="preserve">
<g>
	<g>
		<path fill-rule="evenodd" clip-rule="evenodd" d="M79.65,36.901c0.838-0.51,1.691-0.961,2.496-1.454
			c2.848-1.748,5.885-3.19,8.594-5.06v-0.9c-0.553-0.52-1.195-0.761-1.875-1.178c-1.436-0.884-2.965-1.665-4.434-2.563
			c-3.838-2.352-7.875-4.509-11.711-6.862c-0.736-0.45-1.486-0.729-2.221-1.178c-1.756-1.078-3.617-2.019-5.4-3.119
			c-0.576-0.354-1.736-1.294-2.428-1.386c-0.424-0.056-0.795,0.335-1.039,0.485c-0.76,0.462-1.541,0.904-2.289,1.317
			c-2.307,1.275-4.572,2.593-6.791,3.951c-1.004,0.613-2.423,1.104-3.258,1.87c-0.844-0.093-2.419-1.304-3.12-1.732
			c-2.261-1.386-4.601-2.495-6.861-3.882c-1.011-0.619-2.415-1.768-3.672-2.009c-0.609,0.45-1.363,0.643-2.01,1.039
			c-2.03,1.247-4.177,2.337-6.238,3.604c-6.465,3.975-13.221,7.641-19.751,11.504c-0.044,0.12-0.014,0.069-0.069,0.139v0.9
			c0.18,0.425,2.442,1.474,2.98,1.803c1.975,1.21,4.055,2.393,6.03,3.603c1.042,0.641,2.37,1.06,3.257,1.871
			c0.119,0.045,0.068,0.014,0.139,0.069c-1.301,0.633-2.534,1.477-3.744,2.218c-0.459,0.283-0.925,0.411-1.385,0.692
			c-2.359,1.453-4.834,2.877-7.208,4.298c-0.044,0.12-0.014,0.069-0.069,0.139v0.9c0.199,0.437,2.555,1.527,3.118,1.873
			c2.075,1.27,4.275,2.379,6.375,3.672c1.236,0.762,2.533,1.686,3.881,2.287v15.387c0,0.416-0.094,1.086,0.07,1.385
			c0.281,0.51,1.229,0.73,1.732,1.041c1.328,0.813,2.732,1.521,4.089,2.355c5.202,3.199,10.57,6.234,15.94,9.217
			c0.783,0.436,1.595,0.992,2.357,1.455c0.735,0.449,1.487,0.727,2.216,1.18c0.345,0.213,1.381,1.037,1.873,0.969
			c0.712-0.096,1.836-1.025,2.424-1.385c1.951-1.193,3.977-2.223,5.891-3.396c1.484-0.912,3.023-1.584,4.506-2.496
			c4.965-3.053,10.168-5.885,15.178-8.869c0.045-0.154,0.053-0.182,0.139-0.277V53.813c0.137-0.254,0.783-0.395,1.039-0.555
			c0.781-0.482,1.615-0.889,2.428-1.387c3.221-1.98,6.631-3.843,9.838-5.821c0.057-0.261,0.078-0.615,0.072-0.97
			c-0.945-0.895-2.256-1.378-3.396-2.079c-2.023-1.238-4.152-2.424-6.168-3.673c-0.881-0.545-2.041-0.891-2.773-1.595h-0.068v-0.069
			C78.852,37.521,79.236,37.155,79.65,36.901z M19.286,35.169c-2.092-1.28-4.287-2.531-6.375-3.812
			c-0.793-0.485-1.758-0.771-2.427-1.384c-0.119-0.046-0.067-0.014-0.137-0.071c0.557-0.182,1.052-0.612,1.523-0.9
			c1.313-0.803,2.668-1.501,3.95-2.287c3.989-2.444,8.167-4.569,12.128-7c1.79-1.098,3.648-2.043,5.406-3.118
			c0.703-0.432,1.764-0.704,2.287-1.316c1.021,0.28,2.238,1.263,3.119,1.802c1.829,1.117,3.719,1.992,5.544,3.119
			c0.745,0.459,2.129,1.528,2.98,1.732v0.069c-0.677,0.186-1.249,0.702-1.803,1.04c-1.472,0.898-2.993,1.683-4.435,2.563
			c-3.68,2.249-7.514,4.208-11.157,6.446c-0.893,0.549-1.81,0.907-2.704,1.454c-1.165,0.717-2.41,1.347-3.604,2.08
			c-0.5,0.307-1.047,0.817-1.665,0.971c-0.096,0.076-0.516-0.177-0.692-0.278C20.592,35.922,19.933,35.565,19.286,35.169z
			 M16.307,48.895c-1.354-0.832-2.765-1.544-4.09-2.36c-0.57-0.349-1.251-0.532-1.733-0.968h-0.068
			c0.225-0.451,2.349-1.386,2.91-1.733c1.813-1.114,3.731-2.214,5.545-3.328c0.937-0.574,2.115-0.935,2.911-1.663
			c0.67,0.115,1.221,0.66,1.732,0.971c1.474,0.9,2.996,1.683,4.435,2.565c0.778,0.476,1.58,0.77,2.356,1.247
			c3.366,2.071,6.928,3.868,10.326,5.959c1.597,0.982,3.293,1.84,4.92,2.844c0.498,0.305,1.046,0.816,1.664,0.969
			c-0.221,0.441-2.353,1.391-2.91,1.73c-1.813,1.117-3.73,2.217-5.544,3.33c-0.941,0.578-2.107,0.938-2.912,1.662
			c-0.812-0.094-1.538-0.807-2.148-1.178c-1.63-0.994-3.32-1.863-4.92-2.842C24.67,53.588,20.382,51.393,16.307,48.895z
			 M48.187,84.168c-8.454-4.875-16.912-9.75-25.366-14.623V54.922c0.84,0.273,1.634,0.943,2.356,1.385
			c1.629,0.998,3.324,1.863,4.92,2.844c1.198,0.734,2.434,1.363,3.604,2.076c0.568,0.35,1.251,0.539,1.733,0.973
			c1.251-0.008,2.588-1.199,3.464-1.734c2.249-1.375,4.576-2.59,6.792-3.949c0.79-0.484,1.758-0.773,2.426-1.389h0.07V84.168z
			 M49.712,52.357c-0.3,0.086-0.702,0.254-0.971,0c-0.526-0.217-0.417-0.93-0.417-1.664V24.636c0-0.764-0.077-1.388,0.487-1.594
			c0.058-0.046,0.217-0.094,0.276-0.14c0.355,0.077,0.518,0.195,0.764,0.347c0.426,1.725,0.137,4.956,0.137,7v19.335
			C49.987,50.617,50.032,51.703,49.712,52.357z M75.492,69.545c-0.186,0.277-1.443,0.75-1.803,0.971
			c-1.326,0.813-2.732,1.525-4.09,2.355c-4.426,2.713-9.086,5.186-13.514,7.902c-1.354,0.83-2.76,1.543-4.088,2.355
			c-0.568,0.348-1.381,0.549-1.804,1.039h-0.068V55.127c4.065,2.359,8.132,4.717,12.198,7.072c1.164-0.012,2.504-1.154,3.328-1.664
			c2.324-1.438,4.766-2.676,7.068-4.09c0.748-0.459,2.102-0.895,2.631-1.523h0.141V69.545z M79.027,40.367
			c1.828,1.12,3.721,1.994,5.545,3.121c0.818,0.503,2.414,1.709,3.326,1.939v0.14c-2.17,1.057-4.273,2.426-6.309,3.672
			c-3.834,2.354-7.838,4.389-11.645,6.723c-1.627,1-3.316,1.861-4.92,2.842c-0.703,0.434-1.76,0.703-2.285,1.316
			c-0.869-0.082-2.09-1.105-2.771-1.523c-1.83-1.119-3.721-1.998-5.545-3.119c-0.818-0.506-2.416-1.715-3.326-1.941
			c0.24-0.48,1.137-0.688,1.592-0.969c1.602-0.99,3.293-1.846,4.924-2.844c4.154-2.546,8.521-4.872,12.68-7.416
			c1.475-0.897,2.998-1.671,4.438-2.563c0.523-0.322,1.15-0.498,1.594-0.901C77.189,38.984,78.324,39.938,79.027,40.367z
			 M76.463,36.625c-0.193,0.028-1.305-0.78-1.525-0.9c-1.627-0.897-3.223-1.818-4.783-2.772c-4.271-2.607-8.725-4.885-12.959-7.484
			c-1.357-0.833-2.76-1.545-4.088-2.357c-0.635-0.386-1.42-0.609-1.939-1.108c-0.119-0.045-0.068-0.014-0.141-0.069
			c0.521-0.142,0.906-0.509,1.316-0.763c0.836-0.511,1.693-0.963,2.496-1.456c1.748-1.071,3.551-1.998,5.268-3.049
			c0.781-0.479,1.762-0.78,2.424-1.386c0.732,0.237,1.389,0.799,2.012,1.179c1.469,0.896,2.998,1.685,4.436,2.564
			c3.564,2.178,7.281,4.071,10.813,6.237c0.891,0.549,1.809,0.907,2.701,1.455c1.279,0.79,2.643,1.482,3.951,2.287
			c0.459,0.283,0.973,0.741,1.523,0.9v0.071c-0.975,0.271-2.459,1.408-3.326,1.94c-1.873,1.147-3.811,2.036-5.684,3.188
			C78.521,35.369,76.869,36.57,76.463,36.625z"/>
	</g>
</g>
</svg>
