<?xml version="1.0" encoding="utf-8"?>
<!-- Generator: Adobe Illustrator 16.0.0, SVG Export Plug-In . SVG Version: 6.00 Build 0)  -->
<!DOCTYPE svg PUBLIC "-//W3C//DTD SVG 1.1//EN" "http://www.w3.org/Graphics/SVG/1.1/DTD/svg11.dtd">
<svg version="1.1" id="Capa_1" xmlns="http://www.w3.org/2000/svg" xmlns:xlink="http://www.w3.org/1999/xlink" x="0px" y="0px"
	 width="24px" height="24px" viewBox="0 0 24 24" enable-background="new 0 0 24 24" xml:space="preserve">
<g>
	<g>
		<path fill-rule="evenodd" clip-rule="evenodd" d="M23.938,5.651c0,2.755,0,5.511,0,8.267c-0.073,0.334-0.146,0.667-0.225,1.025
			c-0.447-0.05-0.915-0.097-1.38-0.157c-0.4-0.053-0.477,0.004-0.491,0.422c-0.011,0.296-0.006,0.592-0.024,0.887
			c-0.01,0.169-0.086,0.295-0.293,0.273c-0.212-0.022-0.261,0.089-0.3,0.289c-0.074,0.384-0.158,0.781-0.328,1.128
			c-0.388,0.789-1.479,0.851-1.911,0.128c-0.077-0.128-0.112-0.284-0.152-0.432c-0.062-0.232-0.165-0.386-0.442-0.403
			c-0.179-0.012-0.349-0.123-0.528-0.166c-0.167-0.039-0.353-0.095-0.51-0.058c-0.442,0.104-0.874,0.181-1.294,0.448
			c-0.561,0.355-1.232,0.621-1.946,0.218c0.034,0.12,0.065,0.216,0.128,0.279c0.5,0.506,0.55,1.118,0.452,1.776
			c-0.029,0.196-0.117,0.273-0.309,0.24c-0.21-0.037-0.334,0.05-0.391,0.256c-0.032,0.116-0.082,0.229-0.136,0.337
			c-0.348,0.687-0.841,1.169-1.661,1.229c-0.752,0.056-1.251-0.301-1.633-0.907c-0.053-0.085-0.235-0.146-0.343-0.128
			c-0.281,0.045-0.556,0.133-0.831,0.214c-0.397,0.117-0.788,0.329-1.188,0.348c-1.001,0.046-1.99-0.104-2.95-0.408
			c-0.503-0.159-1-0.345-1.511-0.466c-1.061-0.251-2.023-0.728-2.968-1.243c-0.436-0.238-0.527-0.8-0.234-1.188
			c0.033-0.044,0.041-0.123,0.028-0.18c-0.061-0.286-0.146-0.568-0.195-0.856c-0.029-0.171-0.019-0.35-0.008-0.523
			c0.03-0.464,0.146-0.938,0.084-1.388c-0.062-0.452-0.251-0.862,0.02-1.323c0.211-0.36,0.283-0.804,0.5-1.16
			c0.478-0.787,0.982-1.56,1.527-2.302c0.233-0.316,0.515-0.665,0.938-0.742c0.48-0.087,0.974-0.104,1.461-0.15
			c0.552-0.052,1.105-0.099,1.656-0.161C6.622,9.066,6.686,8.98,6.753,8.93C6.619,8.771,6.503,8.5,6.347,8.475
			c-0.43-0.071-0.878-0.059-1.318-0.043C4.252,8.459,3.477,8.513,2.701,8.559c-0.218,0.013-0.248-0.111-0.25-0.292
			C2.434,6.948,2.41,5.63,2.389,4.311c-0.002-0.118,0-0.235,0-0.349c0.354-0.055,0.667-0.104,0.979-0.152
			c0.836-0.13,1.671-0.262,2.508-0.388c0.773-0.117,1.547-0.225,2.321-0.339c0.816-0.12,1.63-0.26,2.449-0.359
			c0.884-0.106,1.748-0.415,2.668-0.066c0.605,0.229,1.284,0.259,1.916,0.429c1.075,0.288,2.138,0.62,3.207,0.925
			c1.179,0.337,2.362,0.655,3.539,1C22.635,5.206,23.284,5.437,23.938,5.651z M13.399,16.541c-0.438,0.138-0.871,0.29-1.313,0.409
			c-0.864,0.233-1.732,0.448-2.598,0.673c-0.217,0.056-0.431,0.121-0.646,0.183c-0.006,0.045-0.013,0.089-0.02,0.134
			c0.146,0.051,0.302,0.162,0.437,0.142c0.397-0.061,0.787-0.171,1.177-0.269c0.488-0.122,0.991-0.21,1.458-0.392
			c0.368-0.144,0.689-0.407,1.032-0.614c0.154-0.094,0.311-0.181,0.468-0.27c0.331-0.053,0.661-0.105,0.991-0.159
			c-0.011-0.049-0.022-0.098-0.034-0.146C14.034,16.335,13.717,16.438,13.399,16.541z M2.123,11.683
			c-0.069,0.042-0.165,0.067-0.202,0.128c-0.281,0.461-0.224,0.971-0.157,1.468c0.011,0.083,0.235,0.159,0.373,0.194
			c0.119,0.031,0.255,0,0.383-0.001c0.506-0.003,0.982,0.355,1.509,0.129c0.033-0.014,0.086,0.008,0.127,0.022
			c0.386,0.143,0.786,0.259,1.154,0.438c0.618,0.301,1.275,0.379,1.943,0.432c0.312,0.025,0.496-0.115,0.594-0.405
			c0.284-0.841,0.577-1.678,0.864-2.517c0.119-0.347,0.234-0.696,0.359-1.069c-1.283-0.102-2.515-0.2-3.747-0.298
			c0-0.025,0-0.051,0.001-0.076c0.126-0.032,0.252-0.064,0.379-0.096c-0.001-0.03-0.003-0.061-0.005-0.091
			c-0.1-0.011-0.199-0.03-0.298-0.033C4.915,9.896,4.431,9.892,3.946,9.88C3.785,9.876,3.569,9.788,3.472,9.861
			c-0.384,0.291-0.731,0.63-1.1,0.958c0.381,0.331,0.379,0.338,0.222,0.649c-0.106,0.209-0.229,0.351-0.482,0.203
			c0.275,0.029,0.397-0.153,0.476-0.367c0.021-0.06-0.015-0.189-0.061-0.212c-0.054-0.026-0.194,0.008-0.216,0.055
			C2.23,11.317,2.183,11.503,2.123,11.683z M9.021,12.602c0.034,0.023,0.069,0.046,0.103,0.069c0.062-0.077,0.153-0.146,0.182-0.233
			c0.205-0.622,0.396-1.249,0.595-1.873c0.086-0.27,0.261-0.488,0.546-0.506c0.885-0.059,1.772-0.095,2.659-0.12
			c0.262-0.008,0.487,0.126,0.522,0.408c0.104,0.838,0.188,1.678,0.279,2.518c0.023,0.208-0.044,0.334-0.275,0.358
			c-0.228,0.024-0.451,0.094-0.68,0.112c-0.723,0.06-1.306,0.322-1.66,1.004c-0.14,0.271-0.367,0.495-0.527,0.757
			c-0.288,0.471-0.732,0.628-1.243,0.694c-0.259,0.033-0.367-0.087-0.411-0.312c-0.016-0.083-0.024-0.169-0.036-0.253
			c-0.028-0.017-0.055-0.034-0.083-0.052c-0.068,0.091-0.196,0.182-0.196,0.271c0.004,0.525,0.014,1.054,0.07,1.575
			c0.045,0.422,0.188,0.497,0.604,0.392c1.247-0.318,2.493-0.639,3.738-0.966c0.381-0.1,0.757-0.219,1.13-0.345
			c0.072-0.024,0.163-0.118,0.171-0.188c0.102-0.905,0.236-1.812,0.076-2.723c-0.021-0.121-0.088-0.234-0.153-0.401
			c0.013-0.062,0.08-0.195,0.058-0.312c-0.154-0.807-0.327-1.609-0.496-2.413c-0.044-0.211-0.168-0.309-0.396-0.307
			c-0.903,0.009-1.807-0.011-2.709,0.01c-0.459,0.011-0.882,0.167-1.112,0.608c-0.131,0.251-0.229,0.523-0.317,0.794
			C9.304,11.644,9.166,12.124,9.021,12.602z M5.404,17.892c-0.007,0.04-0.014,0.08-0.021,0.12c0.569,0.104,1.139,0.211,1.71,0.303
			c0.045,0.007,0.159-0.105,0.152-0.148c-0.011-0.071-0.087-0.181-0.147-0.188c-0.305-0.044-0.613-0.068-0.92-0.083
			C5.92,17.882,5.662,17.892,5.404,17.892z M11.143,19.005c-0.015-0.03-0.03-0.062-0.045-0.092
			c-0.762,0.211-1.525,0.422-2.299,0.636c-0.026,0.21,0.052,0.296,0.281,0.22c0.635-0.211,1.273-0.416,1.907-0.631
			C11.046,19.117,11.091,19.051,11.143,19.005z M5.357,18.393c0.099,0.483,0.185,0.532,0.807,0.565
			c0.063-0.337,0.072-0.364-0.277-0.555C5.759,18.334,5.56,18.393,5.357,18.393z M3.748,15.109c-0.15-0.085-0.291-0.221-0.443-0.237
			c-0.195-0.021-0.497-0.012-0.579,0.105c-0.15,0.215,0.18,0.147,0.261,0.25c0.026,0.033,0.063,0.063,0.1,0.084
			C3.289,15.425,3.681,15.288,3.748,15.109z M7.273,19.149c0.028-0.025,0.056-0.051,0.084-0.077
			c-0.045-0.108-0.104-0.314-0.132-0.311c-0.198,0.03-0.389,0.104-0.583,0.162c0.006,0.037,0.012,0.075,0.018,0.112
			C6.864,19.074,7.069,19.112,7.273,19.149z M1.744,17.771c-0.007-0.136,0.026-0.274-0.023-0.316
			c-0.123-0.104-0.284-0.165-0.482-0.272c0.025,0.221,0.039,0.336,0.053,0.461C1.412,17.677,1.536,17.712,1.744,17.771z
			 M0.689,17.065c-0.049,0.233-0.055,0.429,0.235,0.427c0.069,0,0.201-0.104,0.195-0.144C1.084,17.131,0.962,16.999,0.689,17.065z
			 M1.261,16.792c-0.249-0.118-0.497-0.237-0.811-0.387C0.574,16.783,0.827,16.902,1.261,16.792z M7.618,19.058
			c0.218-0.03,0.37-0.052,0.522-0.073c0.003-0.033,0.006-0.065,0.009-0.099c-0.147-0.041-0.294-0.087-0.445-0.113
			C7.693,18.771,7.657,18.925,7.618,19.058z"/>
		<path fill-rule="evenodd" clip-rule="evenodd" fill="#FFFFFF" d="M23.938,5.651c-0.653-0.214-1.303-0.445-1.962-0.639
			c-1.177-0.345-2.36-0.663-3.539-1c-1.069-0.306-2.132-0.637-3.207-0.925c-0.632-0.169-1.311-0.199-1.916-0.429
			c-0.92-0.349-1.785-0.04-2.668,0.066C9.826,2.823,9.012,2.963,8.196,3.083C7.422,3.197,6.648,3.306,5.875,3.422
			C5.039,3.548,4.203,3.681,3.367,3.811C3.055,3.859,2.743,3.907,2.389,3.962c0,0.113-0.001,0.231,0,0.349
			C2.41,5.63,2.434,6.948,2.451,8.267c0.002,0.18,0.032,0.304,0.25,0.292c0.776-0.046,1.551-0.099,2.328-0.127
			c0.439-0.016,0.888-0.028,1.318,0.043C6.503,8.5,6.619,8.771,6.753,8.93C6.686,8.98,6.622,9.066,6.549,9.075
			C5.998,9.137,5.445,9.183,4.893,9.235c-0.488,0.046-0.981,0.063-1.461,0.15c-0.423,0.077-0.705,0.426-0.938,0.742
			c-0.544,0.742-1.049,1.515-1.527,2.302c-0.216,0.356-0.288,0.8-0.5,1.16c-0.271,0.461-0.082,0.871-0.02,1.323
			c0.062,0.45-0.054,0.924-0.084,1.388c-0.011,0.174-0.021,0.353,0.008,0.523c0.049,0.288,0.134,0.57,0.195,0.856
			c0.012,0.057,0.004,0.136-0.028,0.18c-0.293,0.388-0.202,0.949,0.234,1.188c0.945,0.516,1.908,0.992,2.968,1.243
			c0.512,0.121,1.008,0.307,1.511,0.466c0.96,0.305,1.949,0.454,2.95,0.408c0.4-0.019,0.791-0.23,1.188-0.348
			c0.274-0.081,0.549-0.169,0.831-0.214c0.108-0.018,0.29,0.043,0.343,0.128c0.382,0.606,0.881,0.963,1.633,0.907
			c0.82-0.06,1.313-0.542,1.661-1.229c0.054-0.108,0.104-0.221,0.136-0.337c0.057-0.206,0.181-0.293,0.391-0.256
			c0.191,0.033,0.279-0.044,0.309-0.24c0.098-0.658,0.048-1.271-0.452-1.776c-0.063-0.063-0.094-0.159-0.128-0.279
			c0.714,0.403,1.386,0.138,1.946-0.218c0.42-0.268,0.852-0.344,1.294-0.448c0.157-0.037,0.343,0.019,0.51,0.058
			c0.18,0.043,0.35,0.154,0.528,0.166c0.277,0.018,0.381,0.171,0.442,0.403c0.04,0.147,0.075,0.304,0.152,0.432
			c0.433,0.723,1.523,0.661,1.911-0.128c0.17-0.347,0.254-0.744,0.328-1.128c0.039-0.2,0.088-0.312,0.3-0.289
			c0.207,0.021,0.283-0.104,0.293-0.273c0.019-0.295,0.014-0.591,0.024-0.887c0.015-0.418,0.091-0.475,0.491-0.422
			c0.465,0.061,0.933,0.107,1.38,0.157c0.078-0.358,0.151-0.691,0.225-1.025c0,2.601,0,5.201,0,7.803c-7.91,0-15.82,0-23.737,0
			c0-6.429,0-12.859,0-19.3c7.908,0,15.823,0,23.737,0C23.938,3.491,23.938,4.571,23.938,5.651z"/>
		<path fill-rule="evenodd" clip-rule="evenodd" fill="#FFFFFF" d="M2.113,11.672c0.252,0.147,0.375,0.006,0.481-0.204
			c0.157-0.311,0.159-0.318-0.222-0.649c0.369-0.329,0.716-0.668,1.1-0.958C3.569,9.788,3.785,9.876,3.946,9.88
			c0.484,0.012,0.968,0.017,1.453,0.028c0.1,0.002,0.199,0.021,0.298,0.033c0.001,0.03,0.003,0.061,0.005,0.091
			c-0.126,0.032-0.252,0.064-0.379,0.096c0,0.025-0.001,0.051-0.001,0.076c1.232,0.098,2.464,0.196,3.747,0.298
			c-0.125,0.373-0.24,0.722-0.359,1.069c-0.288,0.839-0.58,1.676-0.864,2.517c-0.098,0.29-0.282,0.431-0.594,0.405
			c-0.668-0.053-1.325-0.131-1.943-0.432c-0.368-0.18-0.768-0.296-1.154-0.438c-0.041-0.015-0.094-0.036-0.127-0.022
			c-0.527,0.227-1.003-0.132-1.509-0.129c-0.128,0.001-0.264,0.032-0.383,0.001c-0.137-0.035-0.361-0.111-0.373-0.194
			c-0.067-0.497-0.124-1.007,0.157-1.468c0.038-0.061,0.133-0.086,0.202-0.128L2.113,11.672z"/>
		<path fill-rule="evenodd" clip-rule="evenodd" fill="#FFFFFF" d="M9.021,12.602c0.145-0.478,0.283-0.958,0.438-1.432
			c0.089-0.271,0.186-0.542,0.317-0.794c0.23-0.441,0.653-0.597,1.112-0.608c0.902-0.021,1.806-0.001,2.709-0.01
			c0.229-0.002,0.353,0.096,0.396,0.307c0.169,0.804,0.342,1.606,0.496,2.413c0.022,0.116-0.045,0.25-0.058,0.312
			c0.065,0.167,0.132,0.28,0.153,0.401c0.16,0.911,0.025,1.817-0.076,2.723c-0.008,0.07-0.099,0.164-0.171,0.188
			c-0.373,0.126-0.749,0.245-1.13,0.345c-1.245,0.327-2.491,0.647-3.738,0.966c-0.416,0.105-0.559,0.03-0.604-0.392
			c-0.056-0.521-0.066-1.05-0.07-1.575c0-0.09,0.127-0.181,0.196-0.271c0.028,0.018,0.055,0.035,0.083,0.052
			c0.012,0.084,0.02,0.17,0.036,0.253c0.044,0.225,0.152,0.345,0.411,0.312c0.511-0.066,0.956-0.224,1.243-0.694
			c0.16-0.262,0.387-0.486,0.527-0.757c0.354-0.682,0.937-0.944,1.66-1.004c0.229-0.019,0.452-0.088,0.68-0.112
			c0.231-0.024,0.299-0.15,0.275-0.358c-0.092-0.84-0.175-1.68-0.279-2.518c-0.035-0.282-0.261-0.416-0.522-0.408
			c-0.887,0.025-1.774,0.061-2.659,0.12c-0.286,0.019-0.46,0.236-0.546,0.506c-0.199,0.624-0.39,1.251-0.595,1.873
			c-0.029,0.088-0.12,0.156-0.182,0.233C9.09,12.647,9.055,12.625,9.021,12.602z M12.339,13.999
			c-0.047-0.001-0.094-0.002-0.142-0.002c0,0.301-0.021,0.604,0.014,0.9c0.01,0.081,0.201,0.214,0.287,0.199
			c0.465-0.08,0.928-0.188,1.383-0.313c0.108-0.03,0.188-0.168,0.281-0.256c-0.204,0.19-0.401,0.195-0.661,0.143
			c-0.182-0.037-0.503-0.021-0.559,0.082c-0.108,0.202-0.254,0.221-0.417,0.231c-0.082,0.005-0.168-0.071-0.253-0.111
			c0.051-0.075,0.086-0.189,0.157-0.22c0.216-0.091,0.445-0.15,0.688-0.228c-0.05-0.204-0.095-0.384-0.139-0.564
			c-0.022,0.005-0.045,0.009-0.067,0.013c-0.017,0.125-0.034,0.25-0.051,0.376c-0.032,0.006-0.063,0.012-0.096,0.019
			c-0.033-0.12-0.067-0.239-0.111-0.396c-0.049,0.034-0.172,0.076-0.213,0.159c-0.049,0.099-0.027,0.231-0.037,0.35
			c-0.006-0.001-0.013-0.002-0.02-0.003C12.369,14.251,12.354,14.125,12.339,13.999z M14.19,15.234
			c-0.096-0.164-0.151-0.328-0.196-0.325c-0.198,0.013-0.43,0.025-0.576,0.136c-0.096,0.072-0.108,0.322-0.07,0.469
			c0.015,0.058,0.291,0.108,0.412,0.063C13.916,15.52,14.036,15.363,14.19,15.234z M13.972,13.705
			c-0.796,0.082-0.878,0.191-0.62,0.711c0.191-0.035,0.453-0.008,0.54-0.118C13.996,14.165,13.951,13.915,13.972,13.705z
			 M13.854,13.487c-0.001-0.026-0.003-0.053-0.005-0.078c-0.506,0.098-1.013,0.195-1.519,0.293c0.004,0.021,0.008,0.041,0.012,0.063
			C12.847,13.672,13.351,13.58,13.854,13.487z"/>
		<path fill-rule="evenodd" clip-rule="evenodd" fill="#FFFFFF" d="M13.394,16.536c-0.156,0.09-0.313,0.177-0.467,0.271
			c-0.343,0.207-0.664,0.471-1.032,0.614c-0.466,0.182-0.969,0.27-1.458,0.392c-0.391,0.098-0.78,0.208-1.177,0.269
			c-0.135,0.021-0.291-0.091-0.437-0.142c0.007-0.045,0.013-0.089,0.02-0.134c0.215-0.062,0.429-0.127,0.646-0.183
			c0.866-0.225,1.734-0.439,2.598-0.673c0.442-0.119,0.875-0.271,1.313-0.409L13.394,16.536z"/>
		<path fill-rule="evenodd" clip-rule="evenodd" fill="#FFFFFF" d="M5.404,17.892c0.258,0,0.516-0.01,0.773,0.003
			c0.308,0.015,0.616,0.039,0.92,0.083c0.061,0.008,0.137,0.117,0.147,0.188c0.007,0.043-0.106,0.155-0.152,0.148
			c-0.571-0.092-1.141-0.199-1.71-0.303C5.391,17.972,5.397,17.932,5.404,17.892z"/>
		<path fill-rule="evenodd" clip-rule="evenodd" fill="#FFFFFF" d="M11.143,19.005c-0.052,0.046-0.096,0.112-0.157,0.133
			c-0.634,0.215-1.272,0.42-1.907,0.631c-0.229,0.076-0.307-0.01-0.281-0.22c0.774-0.214,1.537-0.425,2.299-0.636
			C11.112,18.943,11.127,18.975,11.143,19.005z"/>
		<path fill-rule="evenodd" clip-rule="evenodd" fill="#FFFFFF" d="M5.357,18.393c0.203,0,0.401-0.059,0.53,0.011
			c0.349,0.19,0.34,0.218,0.277,0.555C5.542,18.925,5.457,18.876,5.357,18.393z"/>
		<path fill-rule="evenodd" clip-rule="evenodd" fill="#FFFFFF" d="M3.748,15.109c-0.067,0.179-0.459,0.315-0.661,0.202
			c-0.038-0.021-0.074-0.051-0.1-0.084c-0.081-0.103-0.411-0.035-0.261-0.25c0.082-0.117,0.384-0.126,0.579-0.105
			C3.458,14.889,3.598,15.024,3.748,15.109z"/>
		<path fill-rule="evenodd" clip-rule="evenodd" fill="#FFFFFF" d="M7.273,19.149c-0.204-0.037-0.409-0.075-0.613-0.113
			c-0.006-0.037-0.012-0.075-0.018-0.112c0.193-0.059,0.385-0.132,0.583-0.162c0.028-0.004,0.087,0.202,0.132,0.311
			C7.329,19.099,7.301,19.124,7.273,19.149z"/>
		<path fill-rule="evenodd" clip-rule="evenodd" fill="#FFFFFF" d="M1.744,17.771c-0.208-0.059-0.332-0.094-0.453-0.128
			c-0.015-0.125-0.028-0.24-0.053-0.461c0.199,0.107,0.359,0.168,0.482,0.272C1.77,17.496,1.737,17.635,1.744,17.771z"/>
		<path fill-rule="evenodd" clip-rule="evenodd" fill="#FFFFFF" d="M2.123,11.683c0.06-0.18,0.107-0.366,0.188-0.535
			c0.022-0.046,0.162-0.081,0.216-0.055c0.046,0.022,0.083,0.152,0.061,0.212c-0.079,0.214-0.201,0.396-0.476,0.367
			C2.113,11.672,2.123,11.683,2.123,11.683z"/>
		<path fill-rule="evenodd" clip-rule="evenodd" fill="#FFFFFF" d="M0.689,17.065c0.272-0.066,0.395,0.065,0.43,0.283
			c0.006,0.039-0.126,0.144-0.195,0.144C0.634,17.494,0.64,17.299,0.689,17.065z"/>
		<path fill-rule="evenodd" clip-rule="evenodd" fill="#FFFFFF" d="M1.261,16.792c-0.435,0.11-0.688-0.009-0.811-0.387
			C0.764,16.555,1.013,16.674,1.261,16.792z"/>
		<path fill-rule="evenodd" clip-rule="evenodd" fill="#FFFFFF" d="M7.618,19.058c0.04-0.133,0.076-0.287,0.086-0.285
			c0.15,0.026,0.297,0.072,0.445,0.113c-0.003,0.033-0.006,0.065-0.009,0.099C7.987,19.006,7.835,19.027,7.618,19.058z"/>
		<path fill-rule="evenodd" clip-rule="evenodd" fill="#FFFFFF" d="M13.399,16.541c0.317-0.104,0.635-0.206,0.952-0.31
			c0.012,0.049,0.023,0.098,0.034,0.146c-0.33,0.054-0.66,0.106-0.992,0.158L13.399,16.541z"/>
		<path fill-rule="evenodd" clip-rule="evenodd" d="M12.339,13.999c0.015,0.126,0.03,0.252,0.045,0.378
			c0.006,0.001,0.013,0.002,0.02,0.003c0.009-0.118-0.012-0.251,0.037-0.35c0.042-0.083,0.165-0.125,0.213-0.159
			c0.044,0.157,0.078,0.276,0.111,0.396c0.032-0.007,0.063-0.013,0.096-0.019c0.017-0.126,0.034-0.251,0.051-0.376
			c0.022-0.004,0.045-0.008,0.067-0.013c0.044,0.181,0.089,0.36,0.139,0.564c-0.242,0.077-0.472,0.137-0.688,0.228
			c-0.071,0.03-0.106,0.145-0.157,0.22c0.084,0.04,0.171,0.116,0.253,0.111c0.163-0.011,0.309-0.029,0.417-0.231
			c0.056-0.103,0.377-0.119,0.559-0.082c0.26,0.053,0.457,0.048,0.661-0.143c-0.094,0.088-0.173,0.226-0.281,0.256
			c-0.455,0.126-0.918,0.233-1.383,0.313c-0.086,0.015-0.277-0.118-0.287-0.199c-0.035-0.297-0.014-0.6-0.014-0.9
			C12.245,13.997,12.292,13.998,12.339,13.999z"/>
		<path fill-rule="evenodd" clip-rule="evenodd" d="M14.19,15.234c-0.154,0.129-0.274,0.285-0.431,0.343
			c-0.121,0.045-0.397-0.006-0.412-0.063c-0.038-0.146-0.025-0.396,0.07-0.469c0.146-0.11,0.378-0.123,0.576-0.136
			C14.039,14.906,14.095,15.07,14.19,15.234z"/>
		<path fill-rule="evenodd" clip-rule="evenodd" d="M13.972,13.705c-0.021,0.21,0.024,0.46-0.08,0.593
			c-0.087,0.11-0.349,0.083-0.54,0.118C13.094,13.896,13.176,13.787,13.972,13.705z"/>
		<path fill-rule="evenodd" clip-rule="evenodd" d="M13.854,13.487c-0.504,0.093-1.008,0.185-1.511,0.277
			c-0.004-0.021-0.008-0.042-0.012-0.063c0.506-0.098,1.013-0.195,1.519-0.293C13.852,13.435,13.854,13.461,13.854,13.487z"/>
	</g>
</g>
</svg>
