<?xml version="1.0" encoding="utf-8"?>
<!-- Generator: Adobe Illustrator 16.0.0, SVG Export Plug-In . SVG Version: 6.00 Build 0)  -->
<!DOCTYPE svg PUBLIC "-//W3C//DTD SVG 1.1//EN" "http://www.w3.org/Graphics/SVG/1.1/DTD/svg11.dtd">
<svg version="1.1" id="Layer_1" xmlns="http://www.w3.org/2000/svg" xmlns:xlink="http://www.w3.org/1999/xlink" x="0px" y="0px"
	 width="100px" height="100px" viewBox="0 0 100 100" enable-background="new 0 0 100 100" xml:space="preserve">
<g>
	<g>
		<path fill-rule="evenodd" clip-rule="evenodd" d="M33.765,21.682v0.315c3.705,0.364,8.936,0.157,13.364,0.157
			c1.141,0,4.56-0.279,5.03,0c0.751,0,0.995-0.087,1.415-0.314c0.183-1.534,0.478-6.786-0.313-8.175c-5.871,0.133-12.958,0-19.338,0
			c-0.743,1.401-0.302,3.803-0.314,5.502C33.6,20.123,33.208,21.053,33.765,21.682z M22.289,82.682
			c-1.129-0.453-1.627-1.815-2.515-2.517V21.682c0.364-0.819,1.762-2.236,2.671-2.516c0.57-0.174,1.558,0.084,1.887,0.158
			c0.758,0.171,6.148-0.219,6.289-0.314c0.512-0.295,0.32-0.705,0.472-0.944c-0.031-0.655-0.11-0.72-0.315-1.1h-8.489
			c-0.521,0.483-1.239,0.377-1.886,0.786c-0.734,0.464-1.803,1.728-2.202,2.516c-1.097,2.172-0.471,10.918-0.471,14.307v34.587
			c0,2.848-0.559,10.341,0.314,12.262c0.399,0.878,1.198,1.437,1.887,2.045c0.647,0.573,2.781,2.006,3.93,1.415h29.4
			c0.387-0.193,0.421-1.036,1.101-1.415c-0.031-0.409-0.07-0.534-0.158-0.786H22.289z M56.247,19.166h8.647
			c0.629,0.577,1.258,1.153,1.886,1.73c0.47,0.724,0.803,3.354,0.629,4.401c-0.033,0.204-0.248,0.807-0.158,1.259
			c0.34,1.657,0,4.598,0,6.76v14.621c0,1.965-0.459,7.309,0.317,8.49c0.119,0.107,0.349,0.206,0.471,0.314
			c0.706-0.014,0.857-0.099,1.257-0.314c-0.315-2.892-0.157-6.439-0.157-9.59v-16.35c0-3.381,0.633-8.508-0.627-10.848
			c-1.635-3.031-6.873-2.706-11.636-2.672c-0.163,0.124-0.581,0.239-0.785,0.314c0.004,0.458,0.008,0.857-0.157,1.1
			C56.022,18.878,56.071,18.838,56.247,19.166z M24.489,28.285c-0.361,0.05-0.391,0.073-0.628,0.157
			c0.469,1.86,3.619,4.376,4.716,5.974c1.336-0.08,1.66-1.026,2.359-1.729c1.307-1.316,2.209-2.677,3.301-4.245
			c0.677-0.974,1.947-1.927,2.358-3.145c0.126-0.185,0.126-0.262,0.157-0.628c-1.232,0.207-1.142,0.981-1.886,1.572
			c-2.103,1.669-3.862,3.54-5.66,5.502C27.842,31.697,25.162,29.17,24.489,28.285z M63.637,28.6
			c-4.751-0.329-10.548-0.155-15.093-0.157c-2.754-0.001-5.72,0.339-7.703,0c-0.162,0.126-0.04,0.059-0.315,0.157
			c-0.104,0.367-0.209,0.733-0.314,1.101c0.143,0.146,0.211,0.274,0.314,0.472c7.431,0.117,15.838,0.117,23.269,0v-0.157h0.156
			C63.95,29.262,63.862,29.019,63.637,28.6z M31.093,46.836c0.936-1.257,2.439-2.31,3.3-3.616c0.8-1.209,1.317-2.515,2.358-3.458
			c-0.034-0.365-0.03-0.443-0.157-0.629c-0.168-0.119-0.144-0.099-0.471-0.157c-0.996,1.5-2.683,2.813-4.089,3.931
			c-0.206,0.164-0.145,0.411-0.313,0.627c-0.739,0.958-1.843,1.783-2.674,2.674c-0.568-0.117-4.061-2.954-4.401-3.458
			c-0.408,0.031-0.533,0.069-0.786,0.157c0.383,1.818,3.847,4.427,4.874,5.975C30.186,48.678,30.398,47.769,31.093,46.836z
			 M63.794,42.906H40.525c-0.178,0.392-0.375,0.554-0.157,0.943c0.057,0.589,0.122,0.584,0.315,0.943
			c5.188-0.343,11.057-0.156,16.507-0.156c1.335,0,5.468,0.349,6.288-0.159h0.315c0.102-0.271,0.03-0.154,0.156-0.313
			C63.95,43.641,63.906,43.228,63.794,42.906z M36.91,53.439h-0.158v-0.157h-0.785c-0.409,1.14-1.769,1.98-2.673,2.673
			c-1.542,1.181-2.771,3.127-4.088,4.56c-1.215-0.141-4.125-2.716-4.717-3.617c-0.361,0.052-0.391,0.074-0.628,0.157
			c0.354,1.846,3.637,4.662,4.874,5.976c1.445-0.087,2.006-1.319,2.673-2.202c0.882-1.171,2.131-2.275,2.986-3.459
			c0.363-0.5,0.431-1.05,0.788-1.571c0.491-0.719,1.304-1.059,1.571-2.044C36.88,53.592,36.81,53.716,36.91,53.439z M63.637,58.941
			c0.104-0.195,0.171-0.325,0.313-0.471c-0.231-1.917-3.467-1.258-5.502-1.258c-5.717,0-11.838,0.152-17.293-0.158
			c-0.341,0.357-0.6,0.392-0.787,0.944c-0.126,0.161-0.057,0.038-0.157,0.313c0.187,0.18,0.337,0.4,0.472,0.629
			c2.59,0.496,6.088,0.157,8.961,0.157C54.22,59.099,59.335,59.439,63.637,58.941z M85.646,77.495
			c0.021-1.408,0.168-3.328-0.313-4.247c-0.518-0.091-1.883,0.098-2.516-0.156c-1.307-0.529-1.313-2.939-2.202-3.931
			c0.097-1.233,1.069-2.307,1.889-2.83c-0.162-1.725-2.377-3.556-3.932-3.93c-0.448,0.497-1.783,2.347-2.987,1.887
			c-0.28-0.109-0.701-0.651-1.101-0.787c-0.68-0.23-1.933-0.299-2.359-0.785c-0.156-1.101-0.313-2.201-0.471-3.303
			c-1.142-0.509-3.395-0.344-5.031-0.314c-0.359,0.741-0.024,2.471-0.471,3.303c-0.234,0.433-1.11,0.551-1.572,0.784
			c-2.572,1.307-3.275,1.296-5.188-0.784c-1.717,0.326-2.373,2.145-3.617,2.986c0.017,1.623,0.945,2.418,1.729,3.302
			c-0.23,1.526-1.322,3.118-2.044,4.244c-0.943,0.104-1.887,0.211-2.829,0.314v0.156h-0.158c-0.119,0.745-0.794,3.545,0,4.562
			c0.506,1.076,2.442,0.321,3.302,0.943c0.873,0.63,0.825,2.52,1.573,3.301c0.026,1.668-0.748,2.527-1.729,3.146
			c0.316,1.887,2.379,2.598,3.301,3.929c1.457-0.171,1.556-1.555,2.672-1.886c0.601-0.18,3.891,1.435,4.402,1.729
			c0.307,0.745,0.344,1.836,0.315,2.987h0.156v0.155c1.111,0.053,3.741,0.634,4.716,0c0.159-0.052,0.314-0.104,0.473-0.155
			c0.157-1.049,0.314-2.099,0.471-3.146c0.272-0.437,1.115-0.218,1.574-0.473c2.394-1.324,3.074-1.253,4.873,0.787
			c1.611-0.103,2.967-2.367,3.932-3.302c-0.112-1.117-1.166-2.139-1.889-2.673c0.028-1.64,1.665-5.471,3.302-4.716
			c1.05,0.046,1.487-0.012,1.729-0.787C85.747,77.574,85.842,77.739,85.646,77.495z M77.942,78.594
			c-1.113,3.068-3.916,5.393-7.231,6.289c-1.631,0.439-3.654-0.243-4.559-0.63c-3.724-1.582-7.773-5.479-5.817-11.476
			c0.742-2.274,2.905-4.431,4.874-5.502c0.787-0.431,1.838-0.289,2.515-0.788c5.032-0.072,8.185,1.988,9.59,5.502
			c0.096,0.238,0.542,0.591,0.629,0.788C78.433,73.874,78.351,77.469,77.942,78.594z M32.979,71.048
			c-0.218,0.167-0.466,0.108-0.629,0.313c-0.792,0.999-2.387,3.216-3.616,3.616c-1.28-1.249-3.172-2.187-4.246-3.616h-0.314v0.157
			h-0.156c0.195,1.583,3.708,4.751,4.716,5.977c1.29-0.151,1.884-1.364,2.515-2.204c0.486-0.645,1.161-1.431,1.729-2.043
			c0.157-0.051,0.314-0.104,0.472-0.156c0.052-0.314,0.105-0.628,0.157-0.943c0.315-0.586,1.178-1.041,1.573-1.572
			c0.562-0.758,0.91-1.558,1.571-2.201c-0.116-0.569,0.017-0.437-0.472-0.629C35.338,68.817,34.103,70.181,32.979,71.048z
			 M40.368,71.989c0.018,0.399,0.019,0.584,0.157,0.788c0.053,0.156,0.105,0.314,0.158,0.471c1.601-0.018,7.38-0.443,8.332,0.156
			c0.84-0.166,0.985-0.699,1.572-1.099c-0.076-0.684-0.052-0.628-0.63-0.787C48.43,72.469,42.295,71.024,40.368,71.989z"/>
	</g>
</g>
</svg>
