<?xml version="1.0" encoding="utf-8"?>
<!-- Generator: Adobe Illustrator 16.0.0, SVG Export Plug-In . SVG Version: 6.00 Build 0)  -->
<!DOCTYPE svg PUBLIC "-//W3C//DTD SVG 1.1//EN" "http://www.w3.org/Graphics/SVG/1.1/DTD/svg11.dtd">
<svg version="1.1" id="Capa_1" xmlns="http://www.w3.org/2000/svg" xmlns:xlink="http://www.w3.org/1999/xlink" x="0px" y="0px"
	 width="612px" height="792px" viewBox="0 0 612 792" enable-background="new 0 0 612 792" xml:space="preserve">
<g>
	<path fill-rule="evenodd" clip-rule="evenodd" d="M220.128,357.875c2.476,0.801,4.552,1.191,6.364,2.102
		c23.461,11.805,46.871,23.714,70.336,35.511c3.23,1.623,4.535,3.887,4.526,7.501c-0.061,23.62,0.04,47.242,0.052,70.862
		c0.003,6.071-0.775,6.551-6.297,3.802c-23.816-11.861-47.584-23.818-71.444-35.589c-3.654-1.804-5.023-4.261-5.002-8.227
		c0.104-19.627-0.065-39.257,0.085-58.885C218.79,369.544,219.599,364.141,220.128,357.875z"/>
	<path fill-rule="evenodd" clip-rule="evenodd" d="M392.398,399.271c0,11.805-0.1,23.611,0.061,35.414
		c0.049,3.655-1.313,5.769-4.58,7.385c-23.707,11.722-47.338,23.599-71.014,35.388c-5.521,2.751-6.268,2.273-6.271-3.823
		c-0.014-22.611,0.148-45.226-0.088-67.835c-0.063-5.796,2.078-8.946,7.293-11.505c21.197-10.403,42.174-21.252,63.234-31.934
		c1.779-0.902,3.545-1.841,5.363-2.663c4.869-2.199,5.967-1.56,5.988,3.66C392.432,375.329,392.398,387.301,392.398,399.271z"/>
	<path fill-rule="evenodd" clip-rule="evenodd" d="M271.228,372.98c2.35-1.399,3.563-2.227,4.864-2.88
		c23.309-11.713,46.664-23.336,69.908-35.172c3.803-1.936,6.938-2.06,10.725-0.007c7.889,4.277,16.016,8.117,24.023,12.179
		c1.563,0.793,3.025,1.786,5.402,3.207c-2.162,1.341-3.43,2.273-4.818,2.966c-23.654,11.789-47.303,23.592-71.031,35.23
		c-1.91,0.937-4.849,1.643-6.544,0.842C293.128,384.316,282.717,378.828,271.228,372.98z"/>
	<path fill-rule="evenodd" clip-rule="evenodd" d="M225.915,350.426c3.404-1.974,5.595-3.386,7.907-4.563
		c22.234-11.306,44.522-22.507,66.702-33.917c3.478-1.789,6.332-1.866,9.796-0.058c8.242,4.301,16.674,8.243,25.01,12.364
		c1.584,0.783,3.088,1.725,5.539,3.104c-2.107,1.317-3.359,2.258-4.74,2.938c-24.162,11.904-48.36,23.734-72.484,35.712
		c-2.85,1.416-5.07,1.36-7.874-0.142c-7.752-4.153-15.695-7.948-23.546-11.918C230.487,353.068,228.819,352.052,225.915,350.426z"/>
</g>
</svg>
