<?xml version="1.0" encoding="utf-8"?>
<!-- Generator: Adobe Illustrator 16.0.0, SVG Export Plug-In . SVG Version: 6.00 Build 0)  -->
<!DOCTYPE svg PUBLIC "-//W3C//DTD SVG 1.1//EN" "http://www.w3.org/Graphics/SVG/1.1/DTD/svg11.dtd">
<svg version="1.1" id="Layer_1" xmlns="http://www.w3.org/2000/svg" xmlns:xlink="http://www.w3.org/1999/xlink" x="0px" y="0px"
	 width="100px" height="100px" viewBox="0 0 100 100" enable-background="new 0 0 100 100" xml:space="preserve">
<g>
	<path fill-rule="evenodd" clip-rule="evenodd" d="M49.479,2.416c0.348,0,0.696,0,1.044,0c0.777,0.386,1.556,0.77,2.331,1.159
		c6.563,3.292,13.127,6.587,19.692,9.878c7.838,3.929,15.674,7.86,23.518,11.78c1.111,0.557,1.683,1.325,1.683,2.461
		c0,14.83,0,29.661,0.052,44.491c0.005,1.349-0.675,2.108-1.938,2.729c-5.799,2.86-11.578,5.749-17.355,8.641
		c-9.331,4.672-18.655,9.353-27.982,14.03c-0.348,0-0.696,0-1.044,0c-2.316-1.157-4.634-2.312-6.948-3.472
		C29.673,87.668,16.82,81.218,3.953,74.784c-1.187-0.593-1.692-1.439-1.692-2.583C2.265,57.407,2.268,42.613,2.254,27.82
		c-0.001-1.222,0.582-2.073,1.792-2.659c1.514-0.732,3.011-1.488,4.512-2.241c8.429-4.23,16.855-8.464,25.287-12.691
		C39.052,7.618,44.267,5.019,49.479,2.416z M92.248,31.613c-0.439,0.155-0.649,0.204-0.83,0.297
		c-9.253,4.718-18.496,9.452-27.76,14.154c-3.326,1.688-6.717,3.279-10.039,4.974c-0.415,0.211-0.821,0.777-0.834,1.188
		c-0.106,3.501-0.148,7.005-0.156,10.511c-0.016,8.984-0.004,17.972-0.004,26.958c0,0.369,0,0.737,0,1.307
		c0.517-0.185,0.871-0.275,1.184-0.43c1.793-0.888,3.575-1.789,5.362-2.685c10.687-5.359,21.366-10.728,32.066-16.063
		c0.77-0.384,1.098-0.775,1.097-1.575c-0.032-12.459-0.021-24.919-0.024-37.379C92.31,32.505,92.275,32.141,92.248,31.613z
		 M47.377,91.17c0-0.796,0.002-1.168-0.001-1.54c-0.073-11.506-0.146-23.012-0.219-34.52c-0.006-0.981,0.073-1.97-0.035-2.941
		c-0.044-0.399-0.373-0.918-0.757-1.119c-3.041-1.607-6.123-3.152-9.197-4.709c-8.004-4.055-16.008-8.107-24.016-12.153
		c-1.741-0.879-3.499-1.733-5.382-2.665c-0.038,0.449-0.078,0.703-0.079,0.956C7.67,45.05,7.66,57.619,7.615,70.19
		c-0.003,0.785,0.324,1.228,1.08,1.605C20.179,77.53,31.651,83.28,43.127,89.028C44.441,89.687,45.754,90.353,47.377,91.17z
		 M32.995,38.442c0.212,0.257,0.246,0.34,0.314,0.375c5.295,2.681,10.605,5.339,15.876,8.055c0.695,0.358,1.183,0.243,1.754-0.044
		c3.74-1.868,7.481-3.738,11.217-5.611c7.077-3.549,14.151-7.099,21.226-10.647c1.972-0.988,3.944-1.975,6.134-3.071
		c-0.653-0.413-1.066-0.725-1.531-0.958c-4.863-2.443-9.751-4.85-14.589-7.329c-0.834-0.426-1.411-0.365-2.184,0.025
		c-10.4,5.25-20.816,10.477-31.228,15.707C37.671,36.106,35.354,37.263,32.995,38.442z M66.767,16.128
		c-0.469-0.324-0.729-0.555-1.037-0.71c-4.941-2.497-9.875-5.005-14.854-7.441c-0.479-0.233-1.389-0.202-1.879,0.041
		C37.28,13.841,25.593,19.708,13.905,25.576c-1.125,0.564-2.215,1.179-3.421,1.824c0.331,0.219,0.458,0.322,0.603,0.396
		c4.729,2.415,9.435,4.868,14.22,7.198c0.73,0.356,1.436,1.238,2.648,0.625c10.997-5.547,22.016-11.062,33.027-16.585
		C62.842,18.101,64.699,17.167,66.767,16.128z"/>
</g>
</svg>
