<?xml version="1.0" encoding="utf-8"?>
<!-- Generator: Adobe Illustrator 16.0.0, SVG Export Plug-In . SVG Version: 6.00 Build 0)  -->
<!DOCTYPE svg PUBLIC "-//W3C//DTD SVG 1.1//EN" "http://www.w3.org/Graphics/SVG/1.1/DTD/svg11.dtd">
<svg version="1.1" id="Layer_1" xmlns="http://www.w3.org/2000/svg" xmlns:xlink="http://www.w3.org/1999/xlink" x="0px" y="0px"
	 width="100px" height="100px" viewBox="0 0 100 100" enable-background="new 0 0 100 100" xml:space="preserve">
<path fill="#E00404" d="M79.578,47.431c-10.086-2.05-20.234-3.779-30.337-5.75c-2.433-0.476-5.095-1.011-7.055-2.377
	c-3.029-2.111-5.569-4.935-8.269-7.505c-4.748-4.523-9.455-9.088-14.193-13.623c-0.427-0.41-0.956-0.713-1.677-1.243
	c-0.044,0.765-0.177,1.221-0.079,1.621c2.078,8.494,4.232,16.972,6.249,25.48c0.623,2.625,1.623,5.466,1.176,7.985
	c-1.277,7.184-3.208,14.25-4.883,21.361c-0.77,3.271-1.541,6.539-2.312,9.809c0.321,0.107,0.642,0.217,0.963,0.326
	c1.682-1.553,3.369-3.1,5.046-4.654c5.542-5.143,11.026-10.348,16.653-15.396c1.75-1.566,3.717-3.201,5.88-3.932
	c3.135-1.061,6.541-1.307,9.826-1.938c7.617-1.467,15.25-2.863,22.824-4.527c1.207-0.266,2.143-1.764,3.205-2.691
	C81.598,49.361,80.736,47.667,79.578,47.431z"/>
<path d="M77.48,44.429c-2.15-3.609-3.818-6.761-5.813-9.688c-5.844-8.578-13.676-13.743-24.411-13.285
	c-4.218,0.18-8.34,1-10.77,5.155c-0.211,0.362-0.636,0.599-1.495,1.376c-4.308-4.542-8.657-8.889-12.668-13.528
	c-0.945-1.093-1.396-3.395-0.923-4.732c0.58-1.637,2.592-2.036,4.56-2.104c7.032-0.246,13.446,1.973,19.747,4.646
	c7.729,3.281,14.827,7.664,21.01,13.337c5.137,4.714,8.949,10.417,10.951,17.193C77.762,43.108,77.6,43.493,77.48,44.429z"/>
<path d="M36.747,71.817c0.296,3.838,2.701,4.838,5.083,5.6c8.852,2.83,16.525,0.031,23.732-5.092
	c5.563-3.953,8.66-9.764,12.021-15.4c0.182-0.305,0.301-0.648,0.5-0.939c0.09-0.133,0.303-0.182,0.799-0.455
	c-1.201,5.391-3.592,9.846-7.029,13.771c-5.605,6.402-12.281,11.531-19.83,15.314c-8.333,4.176-16.834,8.146-26.581,7.684
	c-3.875-0.186-5.668-2.74-3.465-5.912c2.356-3.391,5.323-6.389,8.241-9.344C32.007,75.231,34.205,73.823,36.747,71.817z"/>
</svg>
