<?xml version="1.0" encoding="utf-8"?>
<!-- Generator: Adobe Illustrator 16.0.0, SVG Export Plug-In . SVG Version: 6.00 Build 0)  -->
<!DOCTYPE svg PUBLIC "-//W3C//DTD SVG 1.1//EN" "http://www.w3.org/Graphics/SVG/1.1/DTD/svg11.dtd">
<svg version="1.1" id="Layer_1" xmlns="http://www.w3.org/2000/svg" xmlns:xlink="http://www.w3.org/1999/xlink" x="0px" y="0px"
	 width="100px" height="100px" viewBox="0 0 100 100" enable-background="new 0 0 100 100" xml:space="preserve">
<g>
	<path fill-rule="evenodd" clip-rule="evenodd" d="M66.574,70.852c-0.483,0-0.968,0-1.452,0c0.477-1.647-0.965-1.6-2.55-1.618
		c-3.975-0.044-8.104,0.308-11.894-0.349c-20.101-3.479-31.802-13.453-37.656-27.217c-4.169-9.803-5.847-19.981-5.651-30.283
		C7.424,8.61,7.38,5.834,7.38,2.609c7.997,0.275,15.849,0.214,23.582,0.882c15.616,1.349,30.27,4.656,42.752,12.08
		c8.425,5.01,14.106,11.288,16.678,18.842c2.861,8.406,2.594,17.029,1.402,25.597c-0.443,3.191-1.041,6.59-6.653,7.442
		c-1.698,0.258-3.438,0.364-5.159,0.539c0.146-0.229,0.296-0.46,0.443-0.688c-1.573-0.576-3.15-1.637-4.72-1.63
		C72.253,65.688,67.006,68.94,66.574,70.852z M10.36,4.77C10.09,4.945,9.82,5.121,9.55,5.296
		c25.598,20.051,51.197,40.101,76.794,60.151c0.276-0.184,0.553-0.367,0.829-0.551C62.672,44.12,36.654,24.354,10.36,4.77z"/>
	<g>
		<path fill-rule="evenodd" clip-rule="evenodd" d="M78.553,65.029c3.19,1.877,3.95,5.683,1.78,8.918
			c-1.641,2.447-5.479,3.504-11.542,2.63c0.961,1.235,1.395,2.528,2.134,2.629c7.083,0.96,9.9,4.381,11.297,9.124
			c0.439,1.495,2.814,2.689,4.52,4.213c-2.141,0.245-4.227-0.088-5.334-1.939c-1.09-1.82-2.068-3.696-2.766-5.611
			c-0.651-1.791-1.744-2.883-4.441-3.271c-2.078-0.299-4.006-1.146-6.112-1.782c-1.983,1.099-1.898,2.194-0.562,3.877
			c1.119,1.41,1.4,3.288,1.506,4.977c0.189,3.025-0.641,6.166,3.791,8.598c-4.441-0.004-7.281-3.388-6.279-6.463
			c0.848-2.596,0.682-5.009-1.741-7.183c-1.642-1.474-5.284-2.101-6.884-0.709c-5.341,4.646-11.863,4.128-18.719,2.68
			c-7.897,8.469-10.649,10.403-14.169,9.972c4.133-3.338,8.283-6.691,12.382-10.002c-4.754-2.296-8.798-4.248-13.106-6.329
			c6.561-4.79,13.304-8.383,22.051-7.903c5.425,0.298,10.691,1.991,16.275,0.628c0.619-0.151,1.418,0.093,2.136,0.144
			c0.105,0.007,0.22-0.049,0.58-0.135c-0.021-4.367,4.808-5.27,9.246-6.479c0.607-0.166,1.187-0.387,1.78-0.582
			C77.102,65.029,77.827,65.029,78.553,65.029z"/>
	</g>
</g>
</svg>
