<?xml version="1.0" encoding="utf-8"?>
<!-- Generator: Adobe Illustrator 16.0.0, SVG Export Plug-In . SVG Version: 6.00 Build 0)  -->
<!DOCTYPE svg PUBLIC "-//W3C//DTD SVG 1.1//EN" "http://www.w3.org/Graphics/SVG/1.1/DTD/svg11.dtd">
<svg version="1.1" id="Layer_1" xmlns="http://www.w3.org/2000/svg" xmlns:xlink="http://www.w3.org/1999/xlink" x="0px" y="0px"
	 width="100px" height="100px" viewBox="0 0 100 100" enable-background="new 0 0 100 100" xml:space="preserve">
<g>
	<path fill-rule="evenodd" clip-rule="evenodd" d="M5.862,30.267c3.948,1.929,7.915,3.819,11.839,5.794
		c8.883,4.47,17.709,9.059,26.641,13.428c2.549,1.247,3.48,2.903,3.456,5.69c-0.105,12.16-0.037,24.322-0.043,36.484
		c0,0.594-0.098,1.188-0.186,2.191c-1.102-0.309-2.1-0.428-2.949-0.85C32.194,86.844,19.759,80.697,7.419,74.364
		c-1.211-0.622-2.552-2.438-2.57-3.718c-0.187-13.27-0.115-26.543-0.115-39.815C5.11,30.643,5.486,30.455,5.862,30.267z"/>
	<path fill-rule="evenodd" clip-rule="evenodd" d="M52.898,94.039c-0.079-1.461-0.174-2.4-0.176-3.34
		c-0.01-11.645,0.061-23.288-0.05-34.931c-0.029-3.089,1.142-5.04,3.866-6.398c11.547-5.76,23.047-11.612,34.584-17.392
		c1.102-0.552,2.342-0.829,3.842-1.345c0.121,1.324,0.266,2.164,0.266,3.004c0.016,12.165-0.031,24.33,0.049,36.494
		c0.016,2.345-0.955,3.658-2.969,4.653c-11.809,5.841-23.58,11.759-35.377,17.624C55.742,93,54.462,93.414,52.898,94.039z"/>
	<path fill-rule="evenodd" clip-rule="evenodd" d="M92.402,26.582c-3.688,1.844-6.846,3.431-10.008,5.004
		c-9.677,4.813-19.369,9.594-29.022,14.453c-2.093,1.054-3.951,1.21-6.108,0.052c-4.854-2.608-9.819-5.006-15.169-7.708
		c1.398-0.83,2.372-1.488,3.412-2.014c11.424-5.771,22.88-11.482,34.277-17.308c2.786-1.424,5.27-1.562,8.082,0.018
		C82.382,21.616,87.066,23.851,92.402,26.582z"/>
	<path fill-rule="evenodd" clip-rule="evenodd" d="M8.149,26.543c6.687-3.426,12.774-6.548,18.865-9.662
		c6.558-3.353,13.13-6.679,19.675-10.057c2.168-1.118,4.174-1.18,6.412-0.01c4.901,2.561,9.906,4.921,15.342,7.596
		c-1.229,0.813-1.994,1.445-2.861,1.873c-12.106,5.98-24.248,11.891-36.325,17.929c-2.255,1.127-4.135,1.111-6.344-0.097
		C18.29,31.588,13.541,29.29,8.149,26.543z"/>
</g>
</svg>
