<?xml version="1.0" encoding="utf-8"?>
<!-- Generator: Adobe Illustrator 16.0.0, SVG Export Plug-In . SVG Version: 6.00 Build 0)  -->
<!DOCTYPE svg PUBLIC "-//W3C//DTD SVG 1.1//EN" "http://www.w3.org/Graphics/SVG/1.1/DTD/svg11.dtd">
<svg version="1.1" id="Layer_1" xmlns="http://www.w3.org/2000/svg" xmlns:xlink="http://www.w3.org/1999/xlink" x="0px" y="0px"
	 width="100px" height="100px" viewBox="0 0 100 100" enable-background="new 0 0 100 100" xml:space="preserve">
<path fill="#E5E5E5" d="M1.866,100.869c-0.57,0-1.124-0.225-1.536-0.639c-0.541-0.543-0.75-1.332-0.546-2.07l6.593-23.906
	c-4.105-7.37-6.269-15.709-6.265-24.172C0.122,22.558,22.677,0.167,50.388,0.167c13.443,0.006,26.071,5.205,35.564,14.64
	c9.493,9.436,14.717,21.978,14.714,35.316C100.652,77.646,78.1,100.04,50.388,100.04h-0.021c-8.093-0.002-16.119-1.962-23.265-5.673
	l-24.69,6.432C2.23,100.846,2.046,100.869,1.866,100.869z"/>
<path fill="#FFFFFF" d="M1.866,98.725L8.69,73.969c-4.21-7.244-6.425-15.465-6.422-23.886C2.279,23.741,23.866,2.31,50.388,2.31
	c12.874,0.004,24.954,4.98,34.04,14.011c9.084,9.03,14.084,21.034,14.081,33.8c-0.013,26.343-21.6,47.777-48.121,47.777
	c-0.002,0,0,0,0,0h-0.021c-8.051-0.004-15.964-2.012-22.992-5.815L1.866,98.725z M28.554,83.434l1.463,0.86
	c6.139,3.617,13.178,5.532,20.355,5.535h0.016c22.042,0,39.986-17.813,39.995-39.71c0.004-10.61-4.152-20.588-11.703-28.094
	c-7.552-7.505-17.592-11.642-28.276-11.646c-22.062,0-40.002,17.813-40.01,39.708c-0.003,7.502,2.111,14.81,6.114,21.133
	l0.952,1.503l-4.041,14.652L28.554,83.434z"/>
<path fill="#7FFF00" d="M3.538,97.057l6.59-23.898c-4.066-6.994-6.204-14.932-6.201-23.06c0.009-25.43,20.848-46.12,46.453-46.12
	c12.427,0.006,24.093,4.81,32.86,13.528c8.771,8.718,13.598,20.306,13.595,32.629c-0.011,25.43-20.853,46.123-46.452,46.123
	c-0.003,0,0,0,0,0h-0.022c-7.774-0.002-15.413-1.941-22.197-5.613L3.538,97.057z"/>
<g>
	<path fill="#006AA4" d="M1.866,98.725L8.69,73.969c-4.21-7.244-6.425-15.465-6.422-23.886C2.279,23.741,23.866,2.31,50.388,2.31
		c12.874,0.004,24.954,4.98,34.04,14.011c9.084,9.03,14.084,21.034,14.081,33.8c-0.013,26.343-21.6,47.777-48.121,47.777
		c-0.002,0,0,0,0,0h-0.021c-8.051-0.004-15.964-2.012-22.992-5.815L1.866,98.725z M28.554,83.434l1.463,0.86
		c6.139,3.617,13.178,5.532,20.355,5.535h0.016c22.042,0,39.986-17.813,39.995-39.71c0.004-10.61-4.152-20.588-11.703-28.094
		c-7.552-7.505-17.592-11.642-28.276-11.646c-22.062,0-40.002,17.813-40.01,39.708c-0.003,7.502,2.111,14.81,6.114,21.133
		l0.952,1.503l-4.041,14.652L28.554,83.434z"/>
	<path fill="#006AA4" d="M38.363,30.111c-0.901-1.988-1.848-2.028-2.707-2.063c-0.701-0.029-1.503-0.029-2.303-0.029
		c-0.802,0-2.104,0.3-3.206,1.495c-1.102,1.194-4.209,4.083-4.209,9.958c0,5.876,4.31,11.553,4.91,12.351
		c0.601,0.796,8.318,13.237,20.539,18.022c10.157,3.979,12.223,3.188,14.43,2.989c2.203-0.199,7.113-2.89,8.115-5.678
		c1-2.788,1-5.177,0.701-5.679c-0.304-0.494-1.104-0.797-2.306-1.393s-7.112-3.486-8.218-3.884
		c-1.102-0.397-1.902-0.599-2.705,0.598c-0.801,1.193-3.104,3.882-3.807,4.679c-0.701,0.801-1.402,0.899-2.604,0.301
		c-1.203-0.598-5.075-1.857-9.669-5.926c-3.575-3.164-5.987-7.074-6.689-8.269c-0.701-1.194-0.012-1.784,0.526-2.437
		c0.975-1.174,2.604-3.287,3.007-4.082c0.399-0.798,0.2-1.496-0.1-2.093C41.767,38.377,39.43,32.473,38.363,30.111z"/>
</g>
</svg>
